<svg width="111" height="91" viewBox="0 0 111 91" fill="none" xmlns="http://www.w3.org/2000/svg">
    <path d="M106.253 12.0536C104.631 11.5841 103.079 10.6674 101.792 9.38809C100.505 8.10875 99.5821 6.56709 99.1097 4.9552C98.6373 6.56709 97.7156 8.10875 96.4275 9.38809C95.8826 9.92924 95.2909 10.4055 94.6667 10.8105L99.9591 17.1313C100.44 16.2653 101.057 15.4493 101.792 14.719C103.079 13.4404 104.631 12.523 106.253 12.0536Z" fill="#FFC800"/>
    <path d="M100.333 17.9726C100.81 16.9824 101.475 16.048 102.302 15.2272C104.101 13.4404 106.442 12.4133 108.721 12.4133L108.721 11.6966C106.44 11.6966 104.1 10.671 102.302 8.8828C100.504 7.09459 99.4703 4.76885 99.4703 2.50403L98.7491 2.50403C98.7491 4.771 97.717 7.09674 95.9176 8.8828C95.3772 9.4191 94.7882 9.88703 94.1667 10.2793L97.5834 13.7947L100.333 17.9726ZM94.6667 10.8109C95.2912 10.4058 95.883 9.92941 96.4275 9.38808C97.7141 8.10874 98.6373 6.56709 99.1097 4.9552C99.5821 6.56709 100.505 8.10874 101.792 9.38808C103.079 10.6674 104.631 11.5841 106.253 12.0535C104.631 12.523 103.079 13.439 101.792 14.719C101.057 15.45 100.441 16.2658 99.9593 17.1313L97.6464 13.6398L94.6667 10.8109Z" fill="#3A032D"/>
    <path d="M88.3433 26.2224C88.0083 25.4505 87.8355 24.6189 87.8355 23.7784C87.8355 22.9378 88.0083 22.1062 88.3433 21.3344C87.5666 21.6672 86.7297 21.8389 85.8839 21.8389C85.0381 21.8389 84.2012 21.6672 83.4245 21.3344C83.7599 22.106 83.9329 22.9378 83.9329 23.7784C83.9329 24.6189 83.7599 25.4507 83.4245 26.2224C84.2011 25.889 85.038 25.7171 85.8839 25.7171C86.7298 25.7171 87.5667 25.889 88.3433 26.2224Z" fill="#FFC800"/>
    <path d="M89.412 27.7912L89.9226 27.2838C88.1095 25.482 88.1095 22.074 89.9226 20.2722L89.4127 19.7654C87.5995 21.5673 84.1701 21.5673 82.357 19.7654L82.1017 20.0184L81.8471 20.2722C83.6602 22.074 83.6602 25.482 81.8471 27.2838L82.357 27.7912C84.1694 25.9887 87.5988 25.9887 89.412 27.7912ZM83.9307 23.7776C83.9336 22.9367 83.7605 22.1044 83.4222 21.3336C84.1989 21.6665 85.0358 21.8382 85.8816 21.8382C86.7274 21.8382 87.5643 21.6665 88.341 21.3336C88.006 22.1054 87.8333 22.9371 87.8333 23.7776C87.8333 24.6181 88.006 25.4498 88.341 26.2216C87.5644 25.8883 86.7275 25.7164 85.8816 25.7164C85.0357 25.7164 84.1988 25.8883 83.4222 26.2216C83.761 25.4511 83.9348 24.6191 83.9329 23.7783L83.9307 23.7776Z" fill="#3A032D"/>
    <g clip-path="url(#clip0_0_1)">
        <path d="M2.58081 74.0943C3.16927 78.5091 3.87484 82.2943 4.62695 85.0616C5.7524 89.1964 6.54084 89.3816 6.54924 89.3825C6.55764 89.3835 7.26324 89.1862 7.96295 85.118C8.50013 81.987 8.90555 77.3332 9.16677 71.2772L2.58081 74.0943Z" fill="#FFC800"/>
        <path d="M101.815 30.1745C102.502 27.4232 102.573 24.5572 102.025 21.7793C101.476 19.0013 100.321 16.3791 98.6407 14.0981C96.9606 11.8171 94.7966 9.93286 92.3016 8.57865C85.0112 4.91598 78.5348 5.98678 72.9283 9.01862C65.0962 13.7379 61.617 23.2611 64.534 31.8182L56.6793 36.5501C56.8322 36.1464 56.9028 35.7165 56.8869 35.2859C56.87 34.9719 56.7875 34.6651 56.6448 34.3851C56.502 34.1051 56.3021 33.8579 56.0577 33.6595C54.7461 32.5413 53.0106 33.0618 51.335 33.5631C50.346 33.8599 49.3191 34.1645 48.343 34.181C40.8676 34.2863 35.9864 34.8112 33.8352 35.7427C32.9258 36.1364 31.0448 36.5632 28.8653 37.0579C23.7826 38.21 16.8218 39.788 12.9311 42.8245C10.4258 44.7802 0.565654 47.8054 0.466243 47.8353L0.0857036 47.9519L0.0726947 48.3472C-0.187623 55.9814 0.303496 65.2676 1.421 73.8266C2.03819 78.5494 2.78855 82.584 3.59243 85.4961C4.36529 88.2984 5.11282 89.8447 5.94923 90.3246C6.14402 90.4403 6.36872 90.4968 6.59572 90.4871C7.68605 90.435 8.41147 88.9437 9.02181 85.4993C9.60075 82.2325 10.0303 77.2856 10.2976 70.7933L16.4768 68.1467C29.7764 69.395 39.0867 66.2615 40.1072 65.8996C42.0065 65.225 42.9842 64.0983 44.0198 62.9026C44.647 62.1783 45.2956 61.4304 46.203 60.7224C47.5393 59.68 48.1364 58.4845 48.7131 57.3285C49.2241 56.3035 49.7561 55.2421 50.8382 54.2379C56.0905 54.4003 59.1746 53.2177 59.7544 50.8054C60.3342 48.3931 58.7452 46.9956 56.9534 46.0686L68.8312 38.9131C71.2294 41.4257 74.2641 43.2479 77.6176 44.1888C80.971 45.1297 84.5197 45.1548 87.8921 44.2614C91.2644 43.3679 94.3363 41.5889 96.7858 39.1105C99.2354 36.6322 100.973 33.5458 101.815 30.1745ZM69.329 37.818C67.7673 36.087 66.5499 34.0762 65.741 31.8919C62.7233 23.7155 65.9887 14.4942 73.5043 9.96661C82.1615 4.75158 93.4445 7.50719 98.6563 16.1101C101.161 20.2484 101.909 25.213 100.736 29.9118C99.5621 34.6106 96.5635 38.659 92.3992 41.1663C84.8864 45.6955 75.1849 44.282 69.329 37.818ZM55.7386 45.5097C54.8653 45.1441 53.9284 44.815 52.9418 44.4701C51.451 43.9472 49.9085 43.4074 48.6266 42.7346L48.5891 42.7131L64.9292 32.8721C65.313 33.8137 65.7699 34.7239 66.2959 35.5945C66.8232 36.4655 67.4187 37.2937 68.0769 38.0713L55.7386 45.5097ZM6.55075 89.3797C6.54402 89.3758 5.75391 89.1935 4.62846 85.0588C3.87634 82.2914 3.17078 78.5062 2.58232 74.0914L9.16828 71.2743C8.90706 77.3303 8.50259 81.9847 7.96445 85.1151C7.26474 89.1833 6.55434 89.3779 6.55075 89.3797ZM58.6832 50.5488C58.0812 53.0302 53.3966 53.2255 50.6583 53.1221C49.4943 53.0781 48.3336 52.9725 47.1811 52.8058L47.0025 53.8987C47.0533 53.9061 48.0092 54.0569 49.3866 54.1594C48.6053 55.074 48.1417 56.0021 47.7256 56.8374C47.1801 57.9307 46.6648 58.9634 45.5262 59.8508C44.534 60.6253 43.8184 61.451 43.1875 62.1796C42.2082 63.3092 41.3634 64.2845 39.7419 64.8603C36.1111 66.1498 27.1164 68.0581 16.4485 67.0349L16.3075 67.0217L2.43664 72.9544C1.41038 64.8032 0.952506 56.0576 1.17529 48.7727C3.06755 48.1809 11.2168 45.5677 13.6206 43.6918C17.3132 40.8089 24.1336 39.2628 29.1134 38.1335C31.4396 37.6067 33.2763 37.1902 34.2829 36.7526C35.667 36.1531 39.2345 35.4116 48.361 35.2819C49.4978 35.2668 50.5959 34.9366 51.6585 34.6168C53.1764 34.1619 54.4874 33.7698 55.34 34.4955C55.4703 34.599 55.577 34.7289 55.6531 34.8766C55.7293 35.0243 55.7731 35.1864 55.7817 35.3524C55.8331 36.2436 55.0352 37.3456 54.6663 37.7642L47.3815 42.1506C45.3901 41.32 42.6904 40.5766 39.3479 39.9424C36.751 39.4523 34.7129 39.2162 34.6994 39.2085L34.5662 40.307C34.6453 40.3166 42.5631 41.2591 47.1978 43.2764C47.5294 43.4206 47.8354 43.5668 48.1073 43.71C49.4605 44.4212 51.0425 44.9747 52.5755 45.5065C53.6411 45.8788 54.6525 46.2341 55.5629 46.6285C58.1793 47.7756 59.08 48.906 58.6832 50.5488Z" fill="#3A032D"/>
        <path fill-rule="evenodd" clip-rule="evenodd" d="M90.1177 13.3162C83.2708 9.38781 74.5186 11.7139 70.5693 18.5117C66.6199 25.3094 68.9688 34.0047 75.8157 37.933C82.6627 41.8614 91.4148 39.5353 95.3641 32.7375C99.3135 25.9398 96.9646 17.2445 90.1177 13.3162ZM69.5362 17.9189C73.8146 10.5547 83.2961 8.03474 90.7136 12.2905C98.1311 16.5462 100.676 25.966 96.3973 33.3303C92.1188 40.6945 82.6373 43.2145 75.2198 38.9587C67.8023 34.703 65.2577 25.2832 69.5362 17.9189Z" fill="#3A032D"/>
    </g>
    <defs>
        <clipPath id="clip0_0_1">
            <rect width="102.385" height="84.2314" fill="white" transform="translate(0.00439453 6.25671)"/>
        </clipPath>
    </defs>
</svg>
