<svg xmlns="http://www.w3.org/2000/svg" width="64" height="16" viewBox="0 0 64 16" fill="none">
    <path d="M48 3.2C48 1.43269 49.4327 0 51.2 0H60.8C62.5673 0 64 1.43269 64 3.2V12.8C64 14.5673 62.5673 16 60.8 16H51.2C49.4327 16 48 14.5673 48 12.8V3.2Z" fill="url(#paint0_linear_238_19906)"/>
    <path d="M54.2119 12.4444H51.7336L54.5312 7.96183L51.7336 3.55548H54.1863L55.7959 6.20945L55.8853 7.04754H56.1281L56.2047 6.20945L57.8271 3.55548H60.267L57.4821 7.96183L60.267 12.4444H57.8015L56.2175 9.72691L56.1281 8.88881H55.8853L55.8087 9.72691L54.2119 12.4444Z" fill="#FE5537"/>
    <path d="M9.88396 5.50355C9.88396 2.66966 8.05682 1.54315 5.04639 1.54315H0V13.7236H2.76681V7.52775V4.07781H5.06379C6.4559 4.07781 7.18675 4.35943 7.18675 5.71477C7.18675 7.07011 6.4733 7.52775 5.06379 7.52775H2.76681L6.92573 13.7236H10.1798L6.82133 8.9711C8.70067 8.54865 9.88396 7.29893 9.88396 5.50355ZM32.3839 6.9821C31.9663 8.46064 31.7226 9.55195 31.5138 10.5553H31.479C31.2528 9.69277 30.957 8.56625 30.5916 7.35173L29.5649 4.09541H27.1287L26.0846 7.35173C25.7018 8.56625 25.406 9.67517 25.1971 10.5553H25.1623C24.9535 9.55195 24.7447 8.39024 24.3097 6.92929L23.4918 4.09541H20.8816L23.9268 13.7236H26.4326L27.5289 10.0976C27.9118 8.86548 28.0858 8.14381 28.3294 7.10531H28.3642C28.6078 8.14381 28.7818 8.86548 29.1646 10.0976L30.2609 13.7236H32.7667L35.812 4.09541H33.2192L32.3839 6.9821ZM15.522 11.6818C14.1995 11.6818 13.399 10.5377 13.399 8.90069C13.399 7.28133 14.2169 6.11961 15.522 6.11961C16.8271 6.11961 17.6276 7.28133 17.6276 8.91829C17.645 10.5553 16.8445 11.6818 15.522 11.6818ZM15.522 3.83138C12.3724 3.83138 10.8236 6.22522 10.8236 8.90069C10.8236 11.6114 12.3724 13.97 15.522 13.97C18.6716 13.97 20.2204 11.6114 20.2204 8.90069C20.2204 6.24282 18.6716 3.83138 15.522 3.83138ZM43.5556 10.8017C43.5556 12.6499 42.146 13.9876 40.0057 13.9876C37.6391 13.9876 36.6472 12.9139 36.6472 12.9139V10.5024H36.7168C37.4825 11.2417 38.7876 11.7346 39.7969 11.7346C40.5973 11.7346 40.9802 11.4177 40.9802 10.9425C40.9802 10.5553 40.7713 10.3616 40.0753 10.1328L39.0834 9.79838C37.6739 9.32313 36.5428 8.65426 36.5428 6.84128C36.5428 5.0459 37.9523 3.83138 40.0927 3.83138C40.1797 3.83138 40.2667 3.83138 40.3537 3.83138C42.2505 3.90179 43.2771 4.67627 43.2771 4.67627V7.15811H43.2075C42.6159 6.63006 41.4674 6.08441 40.3015 6.08441C39.4662 6.08441 39.1008 6.38364 39.1008 6.78848C39.1008 7.19332 39.414 7.40454 39.9883 7.61576L40.9454 7.96779C42.3375 8.49585 43.5556 9.14711 43.5556 10.8017Z" fill="#3A032D"/>
    <defs>
        <linearGradient id="paint0_linear_238_19906" x1="62.6667" y1="0.444444" x2="49.3333" y2="15.5556" gradientUnits="userSpaceOnUse">
            <stop stop-color="#FFEEEB"/>
            <stop offset="0.046963" stop-color="#FFEDEA"/>
            <stop offset="0.089037" stop-color="#FFEDEA"/>
            <stop offset="0.128" stop-color="#FFECE9"/>
            <stop offset="0.16563" stop-color="#FFEBE8"/>
            <stop offset="0.203704" stop-color="#FFEAE7"/>
            <stop offset="0.244" stop-color="#FFE9E5"/>
            <stop offset="0.288296" stop-color="#FFE8E4"/>
            <stop offset="0.33837" stop-color="#FFE6E2"/>
            <stop offset="0.396" stop-color="#FFE5E0"/>
            <stop offset="0.462963" stop-color="#FFE3DE"/>
            <stop offset="0.541037" stop-color="#FFE0DB"/>
            <stop offset="0.632" stop-color="#FFDED8"/>
            <stop offset="0.73763" stop-color="#FFDBD4"/>
            <stop offset="0.859704" stop-color="#FFD7D0"/>
            <stop offset="1" stop-color="#FFD4CC"/>
        </linearGradient>
    </defs>
</svg>
